inDegrees=no
num_controls=7
num_derivatives=13
num_iterations=137
num_multipliers=7
num_parameters=0
num_slacks=7
num_states=26
objective=0.497129
objective_accelerations=0.032453
objective_balance=0.003256
objective_effort=0.035099
objective_height=0.420822
objective_ligament=0.005500
solver_duration=1591.731927
status=Solve_Succeeded
success=true
DataType=double
version=3
OpenSimVersion=4.5
endheader
time	/jointset/ground_pelvis/pelvis_tilt/value	/jointset/ground_pelvis/pelvis_tx/value	/jointset/ground_pelvis/pelvis_ty/value	/jointset/hip_r/hip_flexion_r/value	/jointset/hip_r/hip_adduction_r/value	/jointset/hip_r/hip_rotation_r/value	/jointset/back/lumbar_extension/value	/jointset/patellofemoral_r/patellar_flexion_r/value	/jointset/knee_r/knee_flexion_r/value	/jointset/knee_r/knee_adduction_r/value	/jointset/knee_r/knee_rotation_r/value	/jointset/ankle_r/ankle_angle_r/value	/jointset/subtalar_r/subtalar_angle_r/value	/jointset/ground_pelvis/pelvis_tilt/speed	/jointset/ground_pelvis/pelvis_tx/speed	/jointset/ground_pelvis/pelvis_ty/speed	/jointset/hip_r/hip_flexion_r/speed	/jointset/hip_r/hip_adduction_r/speed	/jointset/hip_r/hip_rotation_r/speed	/jointset/back/lumbar_extension/speed	/jointset/patellofemoral_r/patellar_flexion_r/speed	/jointset/knee_r/knee_flexion_r/speed	/jointset/knee_r/knee_adduction_r/speed	/jointset/knee_r/knee_rotation_r/speed	/jointset/ankle_r/ankle_angle_r/speed	/jointset/subtalar_r/subtalar_angle_r/speed	/forceset/tau_hip_flexion_r	/forceset/tau_hip_adduction_r	/forceset/tau_hip_rotation_r	/forceset/tau_knee_flexion_r	/forceset/tau_ankle_angle_r	/forceset/tau_subtalar_angle_r	/forceset/tau_lumbar_extension	lambda_cid13_p0	lambda_cid14_p0	lambda_cid14_p1	lambda_cid14_p2	lambda_cid14_p3	lambda_cid14_p4	lambda_cid14_p5	/jointset/ground_pelvis/pelvis_tilt/accel	/jointset/ground_pelvis/pelvis_tx/accel	/jointset/ground_pelvis/pelvis_ty/accel	/jointset/hip_r/hip_flexion_r/accel	/jointset/hip_r/hip_adduction_r/accel	/jointset/hip_r/hip_rotation_r/accel	/jointset/back/lumbar_extension/accel	/jointset/patellofemoral_r/patellar_flexion_r/accel	/jointset/knee_r/knee_flexion_r/accel	/jointset/knee_r/knee_adduction_r/accel	/jointset/knee_r/knee_rotation_r/accel	/jointset/ankle_r/ankle_angle_r/accel	/jointset/subtalar_r/subtalar_angle_r/accel	gamma_cid13_p0	gamma_cid14_p0	gamma_cid14_p1	gamma_cid14_p2	gamma_cid14_p3	gamma_cid14_p4	gamma_cid14_p5
0.5	-0.0992172484441016	0.05184879830990634	0.8631098141853	0.6953648512617442	-0.230158829771202	-0.1323774301106202	-0.317197688790397	0.6894400770755619	0.6894400770755839	0.04151073360944273	0.1740067732867529	0.2643007149061409	0.05677791653466942	-0.2659719546980005	-0.0894455782696547	-0.3275165351371332	1.409818838997906	-0.007665946250017208	0.2575910253495731	-0.5995812371741677	1.665872659646148	1.665872659646007	-0.2781090912486414	-0.001743566599512455	0.6115167740497794	0.1645369531225188	-0.07598779263566324	-0.01854944287076226	0.008423577153027476	-0.3395988550738536	0.06176807661029222	-0.009861038142362962	0.1358108120710589	-31.91948447893189	-22.38335285164997	-4.284278946978965	-3.331765285269964	3.58964544628351	-671.1777680385876	60.09065088791971	0.05899784975415467	0.2810942802819513	-0.3379264066898217	-0.8835457418187441	-0.04978050844822951	-0.5580563609872479	1.327354488770468	-1.180601757140044	-1.18060175713996	0.3936629520464542	-0.002843772546807743	-0.4876751524245395	-0.06371517297245689	-1.099322059763896e-07	-1.56701876790307e-07	5.326822537048729e-07	-1.232295150127534e-06	3.912591535778314e-08	-2.081954803922215e-07	8.401099286818847e-07
0.51	-0.1018735748448846	0.05096850202170817	0.859818479734579	0.7094166710227576	-0.2302387183954754	-0.1298284348724275	-0.3231264775628523	0.7060372939506595	0.7060372939506455	0.03875160259084648	0.1739892286853335	0.2703903728010661	0.05841873879208684	-0.2652573339687089	-0.08660500466582491	-0.3306763652920128	1.400353888372466	-0.008314234377356082	0.2522082659576145	-0.5861029084055182	1.653337711202077	1.653337711202059	-0.2736894102888632	-0.001764070283365155	0.6063298768587064	0.1635954626829839	-0.08122588422860971	-0.01678145500477121	0.009075979503790443	-0.3424266714088425	0.05752448583928609	-0.009259333283295453	0.1406184957520469	-30.96905150753607	-23.88579903849618	-4.402214285535449	-3.180247781868724	4.183041480898335	-674.3517716631267	59.8910444779255	0.08308010188414934	0.2868490416986085	-0.2939550833677981	-1.006670587824457	-0.07288407124877092	-0.5285314343817078	1.369113407670987	-1.324870804289477	-1.324870804271082	0.4702828338348982	-0.001676315493498018	-0.5469455850156081	-0.1142381180584017	-9.357279492145688e-08	-1.164553243983502e-07	5.850208838661928e-07	-9.280445284184912e-07	8.768239725250146e-09	-1.639074698920721e-07	7.383437982602142e-07
0.52	-0.1045216778549011	0.05011687349780121	0.8564977582296132	0.7233681011045319	-0.2303251961222955	-0.1273332963693722	-0.3289182747802695	0.7225021754580601	0.7225021754580191	0.03603750081502657	0.17397147451725	0.2764256120075673	0.06004917171738597	-0.2643272765447122	-0.08371202541141144	-0.3333939459861311	1.389740903150312	-0.008983766759572246	0.2468196783223912	-0.5721829261665132	1.639405586108052	1.639405586108156	-0.2691032426934271	-0.001785479934778919	0.6006330363649567	0.1624590866988724	-0.08646397582156823	-0.0150134671387944	0.009728381854694277	-0.345254487743837	0.05328089506827417	-0.008657628424253013	0.1454261794330278	-30.01103679608723	-25.39265571396145	-4.518237548441751	-3.032102016756923	4.762974727029032	-677.6004357201064	59.7547842800285	0.1020851886951974	0.2915754103986695	-0.2494765145375673	-1.113152661161582	-0.0540293594236761	-0.5592220096401697	1.415685182841544	-1.460037087130788	-1.460037087130919	0.4269602791780084	-0.003024966059018457	-0.5896638129598886	-0.1026922818877717	-6.837033811433016e-08	-3.538897959761896e-08	7.753572489145065e-07	-3.333650659127548e-07	-6.378516216455896e-08	-6.855187713795037e-08	5.995369154566779e-07
0.53	-0.1071595009015348	0.0492944006030433	0.8531520912049583	0.7372079495917649	-0.2304180546557754	-0.1248936644182994	-0.3345686822941356	0.7388209586445237	0.7388209586445247	0.03336829266782474	0.1739543336494497	0.2824015395806781	0.06166789743390679	-0.2631993131942483	-0.08077616695666656	-0.3356618995112092	1.378038231498834	-0.009596993641549948	0.241143563402234	-0.5578387180645158	1.62412540342963	1.624125403429688	-0.2646796270985462	-0.001662037822600208	0.5944700176486549	0.161243657481305	-0.09156013510516478	-0.01334367365651287	0.01040244014503216	-0.3482506650936487	0.04925132271568535	-0.008182500158527575	0.1501113720372879	-29.04727229247966	-26.84157491397418	-4.688373819529002	-2.864723057544906	5.330837837478901	-680.8948357120088	59.56256940857749	0.1238543325980317	0.2955286716609962	-0.2038245496718006	-1.22740840725691	-0.0662596341504271	-0.5663390156957118	1.452767405249954	-1.59584499536236	-1.595844995369225	0.458998171405835	0.0171382639160026	-0.6420130203863209	-0.1371930168230329	-4.233605458559698e-08	4.812770853097657e-08	9.848752824485389e-07	2.779212036405215e-07	-1.399951903751217e-07	2.538409224602155e-08	4.853566436205308e-07
0.54	-0.1097849038297915	0.0485014738145624	0.8497860706894168	0.7509250545644598	-0.2305173035143975	-0.1225097001729155	-0.3400738519707069	0.7549801727768004	0.7549801727768065	0.03074510787089895	0.1739378490955365	0.2883133585427413	0.06327322390322559	-0.2618432528687472	-0.07780280415601216	-0.3374646441634467	1.365192200242703	-0.0102618317861657	0.2356861371823984	-0.5431353587076703	1.607491775264631	1.607491775264643	-0.2598985726331673	-0.001654217148028228	0.5878113141555142	0.1597792372584685	-0.09665629438873159	-0.0116738801741832	0.01107649843476616	-0.3512468424434438	0.04522175036311996	-0.007707371892707162	0.1547965646415647	-28.07851079850725	-28.29678287184761	-4.858859335900561	-2.698146757421346	5.89864452166391	-684.2861339270974	59.39640493060541	0.1477045837026624	0.2990762795805418	-0.1564347399694198	-1.341824582092251	-0.06435161195131693	-0.5154842695758514	1.487515433811206	-1.730726184446347	-1.73072618444635	0.4984480532775928	-0.0261492535803742	-0.6888007683276949	-0.1524904829415499	-1.538145213083114e-08	1.343554148095496e-07	1.215615587498686e-06	9.0758096184214e-07	-2.202508477065184e-07	1.177494144970617e-07	3.984228349823462e-07
0.55	-0.1123957810594814	0.04773844351830312	0.8464043519651994	0.7645083558910365	-0.2306229369374936	-0.1201814986418374	-0.3454301681251481	0.7709664960897959	0.770966496089713	0.02816905175647961	0.173922022728897	0.2941563663488999	0.0648634747223053	-0.2602990845372164	-0.0747979894681505	-0.3387992927881034	1.35128632753437	-0.01087127959912845	0.2299822002472962	-0.5280786879369969	1.589556816989228	1.589556816989264	-0.2552667603799853	-0.00152602724182049	0.5807150275027972	0.158233021031091	-0.1014816035448863	-0.01020482505886347	0.01167464084088641	-0.3545242314806767	0.04165023630556325	-0.00720925912436682	0.1592616165226446	-27.10581538956047	-29.60244995172561	-4.9890662768937	-2.542690917998949	6.359558125252784	-687.6577565147855	59.33633730760593	0.1627524607480977	0.301921102144225	-0.1099751138232221	-1.442209720111848	-0.05989423715609461	-0.5935821940102657	1.522120535279986	-1.85729106503047	-1.85729106502688	0.4526702719424383	0.03031426083931882	-0.7313634034234715	-0.1610149016962492	1.408665398337475e-09	1.860856075471777e-07	1.353224781735549e-06	1.280783984074448e-06	-2.685858588258419e-07	1.725445499565812e-07	3.622509038338127e-07
0.5600000000000001	-0.114990220705285	0.04700560877667341	0.8430116877167133	0.7779471502695462	-0.2307347954129665	-0.1179094832378084	-0.3506344420445654	0.7867669877368452	0.7867669877366816	0.02564073825670346	0.1739070804909523	0.2999261471305952	0.06643719783729919	-0.2585557360908899	-0.071763693230101	-0.3396537490171459	1.336290810629718	-0.01150684225958163	0.2244489117708775	-0.5127269117029366	1.570325442076096	1.570325442076156	-0.250350049702644	-0.001477391410894744	0.5731659092628894	0.1564736964412983	-0.1063069127010313	-0.008735769943535619	0.01227278324701868	-0.3578016205179029	0.03807872224801598	-0.006711146355992384	0.1637266684037296	-26.13053347386293	-30.91625879724409	-5.121884283490774	-2.385463048204253	6.83319457071013	-691.1524767902604	59.26370542748383	0.1875406066618183	0.3049725896180865	-0.06039626084655975	-1.559753421355963	-0.06957458144938583	-0.4813545778391134	1.546536526488623	-1.990009511992248	-1.990009511992312	0.5554277381094315	-0.04206006863677147	-0.7793670857659163	-0.1951121554245853	6.001401016789795e-09	1.964187840356731e-07	1.379076642996474e-06	1.346238923143592e-06	-2.786160944906792e-07	1.822554612662774e-07	3.869932256728582e-07
0.5700000000000001	-0.1175662638948178	0.04630322069843285	0.8396128819434109	0.7912307147907303	-0.2308530309177904	-0.1156925241030081	-0.3556837825080919	0.8023688508018856	0.8023688508017965	0.02316236110790086	0.1738925177352028	0.3056182620908804	0.06799243674244107	-0.2566198492045079	-0.06871273796090015	-0.3400266185755704	1.320250963546153	-0.0121392930644408	0.2189411424944566	-0.4971012786404839	1.549844742972041	1.549844742972054	-0.2453130689157856	-0.001432959883365819	0.5651882869011754	0.154547119442482	-0.1110518027201815	-0.007133925542176377	0.01275251090554178	-0.3609124146495175	0.03441484770075037	-0.006224638468202831	0.1680910099262262	-25.15425383211359	-32.25540382945905	-5.267396165589764	-2.222537688109005	7.345547754977122	-694.5400616099207	59.14069996887577	0.2015857366778691	0.3052778061190082	-0.01357669347721162	-1.65174785280731	-0.05960516834489395	-0.5856816072549716	1.576562050456471	-2.107466023462616	-2.107466023469764	0.4799226090035436	0.02831240798515731	-0.8173179366993935	-0.1950934129632055	8.352900080860917e-09	1.983644735815022e-07	1.376537943016113e-06	1.35001070616645e-06	-2.801761043033576e-07	1.831757033139941e-07	4.158174198762044e-07
0.58	-0.1201219536140773	0.0456313663349938	0.8362127785964969	0.8043487513408878	-0.2309774958983333	-0.1135306813619125	-0.3605756695701271	0.817759833693115	0.8177598336931007	0.02073477163897066	0.1738785228236377	0.3112285292024835	0.06952767728942418	-0.2544850420360629	-0.06565695026980238	-0.3399132637394768	1.303185216424561	-0.01275273740292619	0.2134256330295789	-0.4812362314047136	1.528149407313966	1.528149407313931	-0.240192513727747	-0.00136382257433988	0.5567963395264516	0.1524740248095439	-0.1157966927393316	-0.005532081140819329	0.01323223856407778	-0.3640232087811313	0.03075097315348549	-0.00573813058041159	0.1724553514487236	-24.17878087235549	-33.60350991969232	-5.415977706306981	-2.057407194919123	7.873578156446827	-698.0622815185142	59.00142517761526	0.2273246630744707	0.3059390739974465	0.03684861805704677	-1.76493342896175	-0.06577328817462093	-0.4829026155304826	1.594419361152148	-2.232936822796376	-2.232936822796443	0.5721426183454499	-0.03711891233737016	-0.8622320883679189	-0.2244156822489292	7.785579446203134e-09	1.89386924318278e-07	1.337025488861053e-06	1.273450937129031e-06	-2.707051223085736e-07	1.726476319042498e-07	4.499575408795694e-07
0.59	-0.1226553302338076	0.04499007164807948	0.8328162427033124	0.8172910923021233	-0.2311080561673762	-0.1114237871730149	-0.3653078041158366	0.8329279017906774	0.8329279017906428	0.01835899079867103	0.17386518865727	0.3167528436690406	0.07104137225036553	-0.2521587375065938	-0.0626029564181679	-0.3393123168897588	1.285118925674304	-0.01335663744872587	0.2079523594729941	-0.4651617135673971	1.505272065341516	1.505272065341492	-0.2349534047330507	-0.001300799808709728	0.5480031208486004	0.1502403657403958	-0.1203309973714193	-0.003965022929854083	0.01360276718685388	-0.3671620102018103	0.02730737726454232	-0.00524376678754526	0.1766246624001113	-23.2061000628939	-34.87264011833083	-5.546321657577318	-1.896325458575822	8.35117606558517	-701.4487846054279	58.88968585224229	0.2400289328881741	0.3049311136190623	0.08399071550835262	-1.852064236808327	-0.05700416694189798	-0.5796081246921454	1.618312620540268	-2.343956403677714	-2.343956403675987	0.5015498424977293	0.02860686876970113	-0.8974173232677264	-0.2261802692751459	7.158497300292922e-09	1.801030345550793e-07	1.294560009442494e-06	1.195613644370895e-06	-2.606168954279498e-07	1.619859446085513e-07	4.797530287999245e-07
